<svg xmlns="http://www.w3.org/2000/svg" viewBox="0 0 266.88 266.88"><defs><style>.cls-1{fill:#ff99b9;}.cls-2{fill:#191919;}.cls-3{fill:#ff004f;}.cls-4{fill:#fff;}</style></defs><g id="Layer_2" data-name="Layer 2"><g id="Layer_1-2" data-name="Layer 1"><path id="_Path_" d="M133.44 60.9a72.54 72.54 0 1 1-72.54 72.54 72.54 72.54 0 0 1 72.54-72.54" data-name="&lt;Path&gt;" class="cls-1"/><path d="M174.61 227.61H92.57l25.44-82.04h31.16l25.44 82.04z" class="cls-2"/><path id="_Compound_Path_" d="M133.44 69A64.43 64.43 0 1 1 69 133.44 64.43 64.43 0 0 1 133.44 69m0-69C59.86 0 0 59.86 0 133.44s59.86 133.44 133.44 133.44S266.88 207 266.88 133.44 207 0 133.44 0z" data-name="&lt;Compound Path&gt;" class="cls-3"/><path d="M214 141.18c-9.07 20.42-58.09 30.71-80.43 30.71s-72.21-10.29-81.29-30.71C43.49 121.4 69 56.37 69 56.37h129.23s24.58 65.03 15.77 84.81z" class="cls-4"/><path d="M61.87 90.63s-16.29-36-6.62-44.28c8-6.89 33.93 10.78 33.93 10.78zM205.39 90.63s16.29-36 6.62-44.28c-8-6.89-33.93 10.78-33.93 10.78z" class="cls-4"/><path d="M62.15 56.37c-4.84 4.3 4.79 22.16 4.79 22.16l14.78-15.08s-15.41-10.78-19.57-7.08zM205.43 56.37c4.84 4.3-4.79 22.16-4.79 22.16l-14.77-15.08s15.4-10.78 19.56-7.08z" class="cls-2"/><rect width="18.57" height="14.44" x="124.3" y="142.3" class="cls-2" rx="7" ry="7"/><path d="M214 141.18c2.84-6.39 2.2-17.51 0-29.63-8.47-9.37-40.58-39.88-80.86-15.12 0 0-40.15-27-80.57 14.41-2.4 12.39-3.22 23.82-.33 30.34 5.11 11.51 23.19 19.8 42 24.84 1.82-6 12.88-38.54 39.17-38.08 24.77.44 35.94 29.74 38.65 38.2 18.76-5.03 36.81-13.36 41.94-24.96z" class="cls-2"/><path d="M161.966 108.175l22.677-7.16 3.74 11.846-22.675 7.162zM122.37 92.07s4.25-21.48 11.09-21.5 11.23 21.5 11.23 21.5l-10.48 8.2zM97.16 119.18l-22.746-7.238 3.78-11.883 22.748 7.236z" class="cls-2"/><path d="M76.672 110.428l20.683 20.683-6.293 6.294L70.38 116.72z" class="cls-3"/><path d="M97.352 116.732L76.67 137.415l-6.294-6.293L91.06 110.44zM174.94 110.436l20.682 20.682-6.293 6.294-20.684-20.683z" class="cls-3"/><path d="M195.624 116.73l-20.682 20.682-6.294-6.293 20.683-20.684z" class="cls-3"/></g></g></svg>